HIERARCHY
ROOT root
{
	OFFSET 0.000000 0.000000 0.000000
	CHANNELS 6 Xposition Yposition Zposition Xrotation Yrotation Zrotation
	JOINT lhip
	{
		OFFSET 0.074893 -0.091585 -0.006512
		CHANNELS 3 Xrotation Yrotation Zrotation
		JOINT lknee
		{
			OFFSET 0.029030 -0.363108 -0.009310
			CHANNELS 3 Xrotation Yrotation Zrotation
			JOINT lankle
			{
				OFFSET -0.011519 -0.383706 -0.045428
				CHANNELS 3 Xrotation Yrotation Zrotation
				JOINT ltoe
				{
					OFFSET 0.024733 -0.055269 0.115241
					CHANNELS 3 Xrotation Yrotation Zrotation
					End Site
					{
						OFFSET 0.000000 0.000000 0.000000
					}
				}
			}
		}
	}
	JOINT rhip
	{
		OFFSET -0.072341 -0.091195 -0.003299
		CHANNELS 3 Xrotation Yrotation Zrotation
		JOINT rknee
		{
			OFFSET -0.035203 -0.369214 -0.011738
			CHANNELS 3 Xrotation Yrotation Zrotation
			JOINT rankle
			{
				OFFSET 0.013796 -0.384196 -0.043931
				CHANNELS 3 Xrotation Yrotation Zrotation
				JOINT rtoe
				{
					OFFSET -0.023894 -0.047104 0.119201
					CHANNELS 3 Xrotation Yrotation Zrotation
					End Site
					{
						OFFSET 0.000000 0.000000 0.000000
					}
				}
			}
		}
	}
	JOINT lowerback
	{
		OFFSET -0.002628 0.105956 -0.025260
		CHANNELS 3 Xrotation Yrotation Zrotation
		JOINT upperback
		{
			OFFSET 0.003780 0.128981 -0.002790
			CHANNELS 3 Xrotation Yrotation Zrotation
			JOINT chest
			{
				OFFSET 0.001847 0.050565 0.030442
				CHANNELS 3 Xrotation Yrotation Zrotation
				JOINT lowerneck
				{
					OFFSET -0.001776 0.215480 -0.052424
					CHANNELS 3 Xrotation Yrotation Zrotation
					JOINT upperneck
					{
						OFFSET 0.002694 0.063769 0.051568
						CHANNELS 3 Xrotation Yrotation Zrotation
						End Site
						{
							OFFSET 0.000000 0.000000 0.000000
						}
					}
				}
				JOINT lclavicle
				{
					OFFSET 0.078886 0.121714 -0.038496
					CHANNELS 3 Xrotation Yrotation Zrotation
					JOINT lshoulder
					{
						OFFSET 0.088955 0.032195 -0.008943
						CHANNELS 3 Xrotation Yrotation Zrotation
						JOINT lelbow
						{
							OFFSET 0.253734 -0.011714 -0.028972
							CHANNELS 3 Xrotation Yrotation Zrotation
							JOINT lwrist
							{
								OFFSET 0.239548 0.009053 0.000899
								CHANNELS 3 Xrotation Yrotation Zrotation
								End Site
								{
									OFFSET 0.000000 0.000000 0.000000
								}
							}
						}
					}
				}
				JOINT rclavicle
				{
					OFFSET -0.080404 0.119425 -0.043704
					CHANNELS 3 Xrotation Yrotation Zrotation
					JOINT rshoulder
					{
						OFFSET -0.092472 0.033297 -0.010896
						CHANNELS 3 Xrotation Yrotation Zrotation
						JOINT relbow
						{
							OFFSET -0.248476 -0.013375 -0.021842
							CHANNELS 3 Xrotation Yrotation Zrotation
							JOINT rwrist
							{
								OFFSET -0.246055 0.009361 -0.002166
								CHANNELS 3 Xrotation Yrotation Zrotation
								End Site
								{
									OFFSET 0.000000 0.000000 0.000000
								}
							}
						}
					}
				}
			}
		}
	}
}
MOTION
Frames: 16
Frame Time: 0.033333
0.000000 0.000000 0.000000 84.563440 -47.004865 -4.791212 -6.170219 -3.054822 2.125819 6.883847 -9.268903 -3.420672 -6.805769 8.778904 5.626909 1.359851 -2.133297 -3.069949 -6.810250 -0.487368 -0.476074 42.932640 3.884101 0.629548 -11.059236 -2.519964 -0.201122 -1.490265 -2.504186 -0.378714 7.500913 0.150306 -0.509152 2.647570 -0.908924 -0.078848 -2.256879 -0.733575 -2.121465 -0.156206 -1.370514 1.606228 8.286738 -4.550912 -2.640583 3.844585 -0.841708 -27.160962 2.343119 -9.465964 -54.697491 10.385866 -28.054005 22.062410 3.055862 -7.144800 4.401999 3.247812 0.799812 29.056019 10.058349 8.141914 58.206182 9.504987 18.791223 -19.236703 2.167276 5.092571 -0.623013 
0.000000 0.000000 0.000000 84.713867 -47.009239 -5.053702 -5.220109 -2.346142 2.721800 6.750683 -9.404719 -3.363644 -7.214147 8.431916 5.270310 1.305433 -2.093796 -2.970565 -8.807355 -0.538989 -0.294083 38.423212 2.825238 0.741620 -12.643928 -2.947430 -0.693695 -1.402553 -2.616321 -0.352961 7.980790 -0.392816 -0.333415 2.392803 -0.911490 0.108951 -2.311974 -1.246030 -1.995294 -0.240343 -1.065333 1.584160 8.416674 -4.649438 -2.636203 3.657575 -1.324349 -26.959101 1.509476 -10.253138 -54.219251 10.739164 -28.573360 22.396918 3.369519 -7.534157 5.092216 3.277242 0.740543 29.240233 10.469609 8.127455 58.691623 10.117546 19.324090 -19.610505 2.017272 5.153226 -0.721197 
0.000000 0.000000 0.000000 85.102146 -47.094123 -5.092314 -4.603040 -1.854796 3.027042 6.388624 -9.236873 -3.471726 -7.385746 8.308889 5.069718 1.242523 -2.157023 -2.900157 -10.141577 -0.505150 0.073027 32.280750 2.163001 0.559993 -13.501031 -2.887740 -0.690668 -1.256384 -2.570521 -0.388485 8.245782 -0.709636 -0.296845 2.178489 -1.067681 0.372075 -2.490189 -1.571454 -1.849827 -0.414709 -0.762643 1.503526 8.348239 -4.615614 -2.372125 3.456683 -1.862970 -26.586586 1.113950 -11.461216 -53.852731 11.415249 -29.232049 22.728714 3.417502 -8.073790 5.495896 3.370584 0.942647 29.052829 10.517624 8.236063 58.937355 10.728834 19.020534 -19.218196 1.579887 5.191432 -0.271959 
0.000000 0.000000 0.000000 85.687765 -47.081086 -4.922183 -4.067340 -1.438980 3.180418 5.948682 -9.038702 -3.468381 -7.678562 8.077146 4.977262 1.207592 -2.209042 -2.875400 -10.637951 -0.539273 0.352458 25.427856 1.769126 0.134431 -12.886490 -2.513298 -0.108746 -1.102672 -2.658787 -0.500518 8.275399 -0.878220 -0.355024 2.153189 -1.390155 0.367987 -2.695464 -1.690457 -1.490010 -0.524800 -0.608041 1.567898 8.372086 -4.758329 -2.084637 3.402290 -1.958246 -26.061152 0.584227 -12.229619 -53.534806 11.467129 -30.017403 22.907579 2.559691 -8.713086 5.107429 3.446784 1.026416 28.982576 10.299367 8.712671 59.368791 10.425430 18.300699 -18.709759 0.821378 5.025594 0.571809 
0.000000 0.000000 0.000000 86.161134 -47.067424 -4.755055 -3.483717 -1.025534 3.260408 5.347553 -8.666960 -3.197849 -7.841336 8.042318 4.714991 1.298231 -2.270750 -2.859754 -10.026855 -0.576255 0.566097 18.955080 2.321503 -0.319465 -12.585365 -2.134350 0.527475 -1.078883 -2.747037 -0.518182 8.252373 -1.041361 -0.182235 2.137571 -1.611831 0.374300 -2.832524 -1.811905 -1.335335 -0.621528 -0.690839 1.448655 8.406518 -5.017951 -1.780389 3.404905 -2.212440 -25.813347 0.170465 -12.931200 -53.231484 11.609048 -30.461385 23.316523 2.967294 -9.067362 4.883787 3.446106 1.043613 28.895831 10.412679 8.761974 59.387274 11.080384 18.325812 -18.629283 1.322102 4.871581 0.984495 
0.000000 0.000000 0.000000 86.730469 -46.898963 -4.413497 -3.007953 -0.704026 3.090725 4.482208 -8.397126 -3.155917 -8.173000 8.131687 4.797369 1.339471 -2.265576 -2.893062 -9.640969 -0.628924 0.453899 14.446447 2.819221 -0.574610 -11.681103 -1.743935 1.096057 -0.965803 -2.857179 -0.551912 7.777811 -1.200985 -0.189721 2.082027 -1.628123 0.437814 -2.814963 -1.808595 -1.148461 -0.815924 -0.724326 1.170434 8.428379 -4.843072 -1.746500 3.514096 -2.098185 -25.750797 -0.114647 -13.188990 -53.073911 11.905698 -31.187992 23.946114 3.414382 -9.334196 5.564494 3.488435 1.216756 29.014127 10.358385 8.783605 59.399946 11.209777 17.842887 -18.755383 2.166098 4.762431 0.551397 
0.000000 0.000000 0.000000 87.063180 -46.576044 -3.947955 -2.535510 -0.678258 2.798104 3.905371 -8.159783 -3.249877 -8.283774 8.172346 4.903259 1.327281 -2.285115 -2.998440 -8.688533 -0.766101 0.427524 11.536317 2.824467 -0.751128 -10.702163 -1.637963 1.568799 -0.991700 -2.925670 -0.706437 7.282831 -1.163229 -0.215552 2.139962 -1.726022 0.313390 -2.954251 -1.853834 -1.155073 -0.599133 -1.080816 1.017204 8.521883 -4.850401 -1.584362 3.502356 -2.086848 -25.914636 -0.155839 -13.347748 -52.954096 12.223151 -31.126768 24.082209 4.051596 -9.483648 5.887828 3.558248 1.316269 29.141858 10.664136 8.674347 59.242058 11.904953 17.542672 -18.950454 3.261852 4.736392 0.217851 
0.000000 0.000000 0.000000 87.254155 -46.152000 -3.391507 -2.234774 -0.589355 2.546055 4.064716 -8.013845 -3.562231 -8.615422 8.042921 5.185635 1.284052 -2.263612 -3.124101 -8.184162 -0.951139 0.117297 10.936448 2.769138 -0.823531 -9.856596 -1.720768 1.746947 -1.055430 -2.916038 -0.911812 6.661335 -1.088440 -0.500078 2.188545 -1.563927 0.104436 -2.945344 -2.000156 -1.146126 -0.311571 -1.287730 0.865115 8.502965 -4.782442 -1.506804 3.613846 -2.151781 -26.081960 -0.081425 -13.596647 -52.635728 12.801754 -31.398971 24.071342 3.903227 -9.596408 5.540642 3.663272 1.327335 29.199686 10.811843 8.637962 59.277649 12.329564 17.483996 -18.817786 3.216026 4.735190 0.718551 
0.000000 0.000000 0.000000 87.572992 -45.617964 -2.720111 -2.011944 -0.476040 2.307927 4.338327 -7.863665 -3.885465 -9.007349 7.916333 5.210603 1.274306 -2.179898 -3.286086 -7.690431 -1.294129 -0.327949 10.597689 2.606980 -0.806308 -9.619156 -2.094928 1.570251 -1.078504 -2.874177 -1.026058 6.211932 -1.052247 -0.693789 2.092050 -1.634370 0.097443 -2.949276 -2.033559 -1.410673 -0.225224 -1.567970 0.736540 8.462705 -4.846492 -1.503512 3.689916 -2.133186 -26.412352 0.226510 -13.391282 -52.479444 13.480720 -31.256536 24.165647 4.071723 -9.648000 5.342695 3.659164 1.191442 29.132308 11.164681 8.407332 59.332837 13.169507 18.234740 -19.084606 3.055757 4.927256 1.261102 
0.000000 0.000000 0.000000 87.784730 -45.285950 -2.291087 -1.643807 -0.545241 1.985400 4.384966 -7.965697 -3.935876 -9.391674 7.882261 5.298127 1.363732 -2.100638 -3.252944 -7.087056 -1.463518 -0.578063 10.356742 2.306006 -0.847683 -9.480355 -2.334746 1.390767 -1.185813 -2.807085 -1.125195 5.820181 -0.880491 -0.626334 2.149624 -1.565110 -0.044271 -3.000789 -1.996501 -1.651692 -0.063728 -2.052946 0.722714 8.412824 -5.186238 -1.457760 3.909970 -1.840763 -26.648116 0.748299 -12.984005 -52.605319 14.021117 -31.370422 24.555523 4.196979 -9.663535 4.834166 3.701416 0.688846 29.187441 11.258247 7.853342 59.291097 13.371149 19.229604 -19.322842 3.198180 4.942941 1.527791 
0.000000 0.000000 0.000000 88.116370 -45.274371 -1.921086 -1.349053 -0.292456 1.974154 4.287529 -8.213570 -4.047133 -9.373151 7.777228 5.198181 1.360010 -2.011687 -3.215112 -6.401633 -1.665958 -0.951369 9.857003 2.132255 -0.598362 -9.358580 -2.536387 1.248845 -1.148692 -2.832955 -1.157858 5.537148 -0.758447 -0.462348 2.247189 -1.617185 -0.118876 -3.150819 -1.742727 -1.872817 -0.021273 -2.364760 0.902636 8.428349 -5.404542 -1.613138 4.048962 -1.210530 -26.982905 1.108065 -12.109238 -52.603946 13.814737 -31.207505 24.447039 3.441156 -9.695017 3.827482 3.579562 0.581418 29.326671 11.415936 7.862134 59.342653 13.705702 19.744376 -19.630040 2.705531 4.871391 2.534044 
0.000000 0.000000 0.000000 88.709064 -45.476664 -1.445190 -1.453561 -0.333203 1.985488 4.811028 -8.128146 -4.137314 -9.840119 7.712843 5.193139 1.402279 -2.080962 -3.244645 -6.055175 -1.784204 -0.898126 9.368411 1.865784 -0.429516 -9.553009 -2.698755 0.976945 -1.151551 -2.816938 -1.258721 5.014073 -0.597997 -0.342690 2.261950 -1.503639 -0.196587 -3.265436 -1.640217 -1.940611 -0.207187 -2.675604 1.031746 8.401973 -5.785506 -1.527877 4.237888 -1.119904 -27.138375 1.116230 -11.788727 -52.925573 13.564306 -29.628664 23.843396 3.737837 -9.498727 3.344210 3.510730 0.713787 29.295068 11.050655 8.067033 59.191255 13.278924 19.181378 -19.275964 2.801036 4.800150 2.756114 
0.000000 0.000000 0.000000 89.434130 -45.723005 -0.896176 -1.379324 -0.273373 1.992820 4.493620 -7.915903 -4.148928 -10.287075 7.844265 5.421497 1.413130 -2.085245 -3.225746 -6.080803 -1.592264 -0.803469 9.051447 1.860235 -0.460817 -9.433765 -2.718433 0.861372 -1.164221 -2.846366 -1.280300 4.703777 -0.371381 -0.247419 2.394964 -1.276002 -0.258923 -3.440821 -1.384704 -2.051144 -0.472976 -2.907332 0.984597 8.451927 -5.940741 -1.531663 4.365826 -0.995586 -27.417201 1.725071 -11.490285 -53.039747 14.562501 -29.999508 24.164852 4.246863 -9.339213 3.429446 3.481574 0.918115 29.430880 11.016614 8.309276 58.762156 14.402022 19.437114 -19.148787 3.778263 4.824689 2.601593 
0.000000 0.000000 0.000000 90.175230 -45.831329 -0.514673 -2.392204 -0.333845 2.111033 6.049922 -7.605782 -3.822918 -10.682485 8.004395 5.435290 1.434053 -2.157057 -3.168431 -6.318341 -1.645848 -0.646785 8.942394 1.757168 -0.165899 -9.509485 -2.538756 0.629501 -1.234383 -2.833622 -1.418854 4.739134 -0.296575 0.037739 2.278927 -1.169195 -0.268513 -3.419616 -1.333050 -1.950951 -0.892362 -3.174810 1.087097 8.363081 -5.899168 -1.681813 4.562596 -0.865734 -27.835140 2.221705 -11.099094 -53.879767 14.985740 -29.940874 24.297445 4.275058 -9.132566 3.602219 3.502778 1.126106 29.329300 10.625387 8.701685 58.564431 15.011243 20.333689 -19.564409 3.641333 4.854489 2.377484 
0.000000 0.000000 0.000000 90.706135 -45.941837 -0.335530 -2.527450 -0.377367 2.313783 6.263837 -7.568201 -3.557652 -11.283270 7.929492 5.539184 1.512434 -2.156506 -3.179308 -6.130277 -1.795504 -0.536181 8.301962 1.531985 0.139284 -9.434156 -2.473276 0.526598 -1.164904 -2.802743 -1.355486 4.769715 -0.096166 0.085439 2.358714 -1.237524 -0.187952 -3.568044 -1.232872 -1.962166 -1.280487 -3.439506 1.197313 8.284626 -6.154274 -1.628129 4.667980 -1.297745 -28.178902 2.545804 -11.130573 -54.408686 15.842302 -29.234801 24.182493 4.898455 -9.091776 3.687862 3.328628 1.423669 29.225388 9.879573 8.942659 58.212437 15.008168 21.285647 -20.020229 3.885801 4.998849 1.579627 
0.000000 0.000000 0.000000 91.139238 -46.005598 -0.229132 -2.559447 -0.231962 2.580749 6.469832 -7.454579 -3.467182 -11.638968 7.982269 5.791256 1.584040 -2.220344 -3.254889 -5.747021 -1.813387 -0.286163 7.689854 1.475816 0.317432 -9.763083 -2.449360 0.544523 -1.150346 -2.779199 -1.426117 4.922410 -0.063194 0.262578 2.417830 -1.108721 -0.375100 -3.754083 -1.061121 -1.876479 -1.466070 -3.648512 1.245317 8.201857 -6.248496 -1.571471 4.677448 -1.381573 -28.374680 2.660873 -10.648177 -54.914865 15.872423 -28.057994 23.534607 4.760371 -8.885013 3.206744 3.131918 1.823481 28.926515 9.310194 9.051097 57.960123 15.395371 21.796304 -19.971245 3.997373 5.101646 1.671888 
